<?xml version="1.0" standalone="no"?>
<!DOCTYPE svg PUBLIC "-//W3C//DTD SVG 20010904//EN"
 "http://www.w3.org/TR/2001/REC-SVG-20010904/DTD/svg10.dtd">
<svg version="1.0" xmlns="http://www.w3.org/2000/svg"
 width="580.000000pt" height="577.000000pt" viewBox="0 0 580.000000 577.000000"
 preserveAspectRatio="xMidYMid meet">
<metadata>
Created by potrace 1.10, written by Peter Selinger 2001-2011
</metadata>
<g transform="translate(0.000000,577.000000) scale(0.050000,-0.050000)"
fill="#000000" stroke="none">
<path d="M2350 9216 c-5 -14 -37 -192 -71 -396 -35 -203 -79 -464 -100 -580
-20 -115 -82 -475 -137 -800 -56 -324 -133 -772 -172 -995 -38 -223 -70 -410
-70 -415 0 -6 162 -10 360 -10 l360 0 0 1503 0 1502 145 -14 c1113 -105 2375
-650 2375 -1025 l0 -86 -190 0 c-104 0 -190 -7 -191 -15 0 -8 46 -169 103
-357 l104 -341 222 -45 c122 -24 455 -98 741 -163 599 -137 577 -135 681 -66
233 155 379 320 439 497 37 108 45 872 11 1052 -64 344 -333 606 -750 731
-157 47 -3844 69 -3860 23z"/>
<path d="M3673 7845 c38 -154 133 -417 169 -468 60 -85 83 -91 419 -126 170
-17 343 -36 384 -43 90 -14 93 2 37 182 -32 100 -39 110 -40 57 -2 -69 -29
-87 -132 -87 -131 0 -130 -2 -130 282 l0 258 -360 0 -361 0 14 -55z"/>
<path d="M6420 6783 c0 -10 14 -142 30 -295 17 -153 35 -325 42 -383 9 -88 17
-105 51 -105 110 0 117 -19 117 -328 0 -376 29 -352 -424 -352 l-350 0 -13
105 c-102 873 -1437 876 -1527 4 l-12 -109 -1331 -5 -1331 -5 -45 -250 c-24
-137 -45 -261 -46 -275 -1 -20 332 -25 1603 -25 l1603 0 -85 73 c-472 404
-181 1153 438 1123 570 -26 811 -696 397 -1099 l-100 -97 1082 0 c1228 0 1099
-22 1061 182 -12 60 -61 343 -111 630 -113 660 -149 758 -334 921 -183 161
-715 376 -715 290z"/>
<path d="M5000 5586 c-112 -41 -195 -205 -162 -320 67 -232 323 -294 480 -115
186 211 -49 533 -318 435z"/>
</g>
</svg>
